<svg width="231" height="54" viewBox="0 0 231 54" fill="none" xmlns="http://www.w3.org/2000/svg">
<path d="M18.0943 24.7876C16.9949 24.7834 16.0488 24.5128 15.2562 23.9759C14.4679 23.4389 13.8606 22.6612 13.4345 21.6428C13.0126 20.6243 12.8038 19.3991 12.8081 17.9673C12.8081 16.5398 13.019 15.3232 13.4409 14.3175C13.867 13.3118 14.4743 12.5469 15.2626 12.0227C16.0552 11.4943 16.9991 11.2301 18.0943 11.2301C19.1895 11.2301 20.1312 11.4943 20.9196 12.0227C21.7122 12.5511 22.3216 13.3182 22.7477 14.3239C23.1738 15.3253 23.3848 16.5398 23.3805 17.9673C23.3805 19.4034 23.1674 20.6307 22.7413 21.6491C22.3194 22.6676 21.7143 23.4453 20.926 23.9822C20.1376 24.5192 19.1937 24.7876 18.0943 24.7876ZM18.0943 22.4929C18.8443 22.4929 19.443 22.1158 19.8904 21.3615C20.3379 20.6072 20.5595 19.4759 20.5552 17.9673C20.5552 16.9744 20.4529 16.1477 20.2484 15.4872C20.0481 14.8267 19.7626 14.3303 19.3919 13.9979C19.0254 13.6655 18.5929 13.4993 18.0943 13.4993C17.3485 13.4993 16.752 13.8722 16.3045 14.6179C15.8571 15.3636 15.6312 16.4801 15.627 17.9673C15.627 18.973 15.7271 19.8125 15.9274 20.4858C16.1319 21.1548 16.4196 21.6577 16.7903 21.9943C17.161 22.3267 17.5957 22.4929 18.0943 22.4929ZM31.0494 11.4091V24.5H28.2816V14.0362H28.2049L25.207 15.9155V13.4609L28.4478 11.4091H31.0494Z" fill="white"/>
<path d="M12.1992 51H9.50604V42.2727H12.3185C13.1651 42.2727 13.8896 42.4474 14.4918 42.7969C15.0941 43.1435 15.5558 43.642 15.8768 44.2926C16.1978 44.9403 16.3583 45.7159 16.3583 46.6193C16.3583 47.5284 16.1964 48.3111 15.8725 48.9673C15.5487 49.6207 15.0771 50.1236 14.4577 50.4759C13.8384 50.8253 13.0856 51 12.1992 51ZM10.5629 50.0625H12.131C12.8526 50.0625 13.4506 49.9233 13.9251 49.6449C14.3995 49.3665 14.7532 48.9702 14.9862 48.456C15.2191 47.9418 15.3356 47.3295 15.3356 46.6193C15.3356 45.9148 15.2205 45.3082 14.9904 44.7997C14.7603 44.2884 14.4165 43.8963 13.9592 43.6236C13.5018 43.348 12.9322 43.2102 12.2504 43.2102H10.5629V50.0625ZM19.9208 51.1534C19.506 51.1534 19.1296 51.0753 18.7915 50.919C18.4535 50.7599 18.185 50.5312 17.9862 50.233C17.7873 49.9318 17.6879 49.5682 17.6879 49.142C17.6879 48.767 17.7617 48.4631 17.9094 48.2301C18.0572 47.9943 18.2546 47.8097 18.5018 47.6761C18.7489 47.5426 19.0217 47.4432 19.32 47.3778C19.6211 47.3097 19.9237 47.2557 20.2276 47.2159C20.6254 47.1648 20.9478 47.1264 21.195 47.1009C21.445 47.0724 21.6268 47.0256 21.7404 46.9602C21.8569 46.8949 21.9151 46.7812 21.9151 46.6193V46.5852C21.9151 46.1648 21.8001 45.8381 21.57 45.6051C21.3427 45.3722 20.9975 45.2557 20.5344 45.2557C20.0543 45.2557 19.6779 45.3608 19.4052 45.571C19.1325 45.7812 18.9407 46.0057 18.8299 46.2443L17.8754 45.9034C18.0458 45.5057 18.2731 45.196 18.5572 44.9744C18.8441 44.75 19.1566 44.5937 19.4947 44.5057C19.8356 44.4148 20.1708 44.3693 20.5004 44.3693C20.7106 44.3693 20.9521 44.3949 21.2248 44.446C21.5004 44.4943 21.766 44.5952 22.0217 44.7486C22.2802 44.902 22.4947 45.1335 22.6651 45.4432C22.8356 45.7528 22.9208 46.1676 22.9208 46.6875V51H21.9151V50.1136H21.864C21.7958 50.2557 21.6822 50.4077 21.5231 50.5696C21.364 50.7315 21.1523 50.8693 20.8881 50.983C20.6239 51.0966 20.3015 51.1534 19.9208 51.1534ZM20.0742 50.25C20.4719 50.25 20.8072 50.1719 21.0799 50.0156C21.3555 49.8594 21.5629 49.6577 21.7021 49.4105C21.8441 49.1634 21.9151 48.9034 21.9151 48.6307V47.7102C21.8725 47.7614 21.7788 47.8082 21.6339 47.8509C21.4918 47.8906 21.3271 47.9261 21.1396 47.9574C20.9549 47.9858 20.7745 48.0114 20.5984 48.0341C20.4251 48.054 20.2844 48.071 20.1765 48.0852C19.9151 48.1193 19.6708 48.1747 19.4435 48.2514C19.2191 48.3253 19.0373 48.4375 18.8981 48.5881C18.7617 48.7358 18.6935 48.9375 18.6935 49.1932C18.6935 49.5426 18.8228 49.8068 19.0813 49.9858C19.3427 50.1619 19.6737 50.25 20.0742 50.25ZM25.1697 53.4545C24.9993 53.4545 24.8473 53.4403 24.7138 53.4119C24.5803 53.3864 24.4879 53.3608 24.4368 53.3352L24.6925 52.4489C24.9368 52.5114 25.1527 52.5341 25.3402 52.517C25.5277 52.5 25.6939 52.4162 25.8388 52.2656C25.9865 52.1179 26.1214 51.8778 26.2436 51.5455L26.4311 51.0341L24.0107 44.4545H25.1016L26.9084 49.6705H26.9766L28.7834 44.4545H29.8743L27.0959 51.9545C26.9709 52.2926 26.8161 52.5724 26.6314 52.794C26.4467 53.0185 26.2322 53.1847 25.9879 53.2926C25.7464 53.4006 25.4737 53.4545 25.1697 53.4545ZM35.8381 45.9205L34.9347 46.1761C34.8778 46.0256 34.794 45.8793 34.6832 45.7372C34.5753 45.5923 34.4276 45.473 34.2401 45.3793C34.0526 45.2855 33.8125 45.2386 33.5199 45.2386C33.1193 45.2386 32.7855 45.331 32.5185 45.5156C32.2543 45.6974 32.1222 45.929 32.1222 46.2102C32.1222 46.4602 32.2131 46.6577 32.3949 46.8026C32.5767 46.9474 32.8608 47.0682 33.2472 47.1648L34.2188 47.4034C34.804 47.5455 35.2401 47.7628 35.527 48.0554C35.8139 48.3452 35.9574 48.7187 35.9574 49.1761C35.9574 49.5511 35.8494 49.8864 35.6335 50.1818C35.4205 50.4773 35.1222 50.7102 34.7386 50.8807C34.3551 51.0511 33.9091 51.1364 33.4006 51.1364C32.733 51.1364 32.1804 50.9915 31.7429 50.7017C31.3054 50.4119 31.0284 49.9886 30.9119 49.4318L31.8665 49.1932C31.9574 49.5455 32.1293 49.8097 32.3821 49.9858C32.6378 50.1619 32.9716 50.25 33.3835 50.25C33.8523 50.25 34.2244 50.1506 34.5 49.9517C34.7784 49.75 34.9176 49.5085 34.9176 49.2273C34.9176 49 34.8381 48.8097 34.679 48.6562C34.5199 48.5 34.2756 48.3835 33.946 48.3068L32.8551 48.0511C32.2557 47.9091 31.8153 47.6889 31.5341 47.3906C31.2557 47.0895 31.1165 46.7131 31.1165 46.2614C31.1165 45.892 31.2202 45.5653 31.4276 45.2812C31.6378 44.9972 31.9233 44.7741 32.2841 44.6122C32.6477 44.4503 33.0597 44.3693 33.5199 44.3693C34.1676 44.3693 34.6761 44.5114 35.0455 44.7955C35.4176 45.0795 35.6818 45.4545 35.8381 45.9205Z" fill="white"/>
<circle cx="52.5" cy="15.5" r="1.5" fill="white"/>
<circle cx="52.5" cy="22.5" r="1.5" fill="white"/>
<path d="M76.8287 24.7876C75.7292 24.7834 74.7832 24.5128 73.9906 23.9759C73.2022 23.4389 72.595 22.6612 72.1689 21.6428C71.747 20.6243 71.5382 19.3991 71.5424 17.9673C71.5424 16.5398 71.7534 15.3232 72.1752 14.3175C72.6014 13.3118 73.2086 12.5469 73.997 12.0227C74.7896 11.4943 75.7335 11.2301 76.8287 11.2301C77.9238 11.2301 78.8656 11.4943 79.6539 12.0227C80.4466 12.5511 81.0559 13.3182 81.4821 14.3239C81.9082 15.3253 82.1191 16.5398 82.1149 17.9673C82.1149 19.4034 81.9018 20.6307 81.4757 21.6491C81.0538 22.6676 80.4487 23.4453 79.6603 23.9822C78.872 24.5192 77.9281 24.7876 76.8287 24.7876ZM76.8287 22.4929C77.5787 22.4929 78.1774 22.1158 78.6248 21.3615C79.0723 20.6072 79.2939 19.4759 79.2896 17.9673C79.2896 16.9744 79.1873 16.1477 78.9828 15.4872C78.7825 14.8267 78.497 14.3303 78.1262 13.9979C77.7598 13.6655 77.3272 13.4993 76.8287 13.4993C76.0829 13.4993 75.4863 13.8722 75.0389 14.6179C74.5914 15.3636 74.3656 16.4801 74.3613 17.9673C74.3613 18.973 74.4615 19.8125 74.6618 20.4858C74.8663 21.1548 75.1539 21.6577 75.5247 21.9943C75.8954 22.3267 76.3301 22.4929 76.8287 22.4929ZM84.0884 24.5V22.5057L88.7482 18.1911C89.1445 17.8075 89.4769 17.4624 89.7454 17.1555C90.0181 16.8487 90.2248 16.5483 90.3654 16.2543C90.506 15.956 90.5763 15.6342 90.5763 15.2891C90.5763 14.9055 90.489 14.5753 90.3143 14.2983C90.1396 14.017 89.9009 13.8018 89.5984 13.6527C89.2958 13.4993 88.9528 13.4226 88.5692 13.4226C88.1687 13.4226 87.8192 13.5036 87.521 13.6655C87.2227 13.8274 86.9925 14.0597 86.8306 14.3622C86.6687 14.6648 86.5877 15.0249 86.5877 15.4425H83.9606C83.9606 14.5859 84.1545 13.8423 84.5423 13.2116C84.93 12.581 85.4734 12.093 86.1722 11.7479C86.8711 11.4027 87.6765 11.2301 88.5884 11.2301C89.5259 11.2301 90.342 11.3963 91.0366 11.7287C91.7354 12.0568 92.2788 12.5128 92.6665 13.0966C93.0543 13.6804 93.2482 14.3494 93.2482 15.1037C93.2482 15.598 93.1502 16.0859 92.9542 16.5675C92.7624 17.049 92.4194 17.5838 91.9251 18.1719C91.4308 18.7557 90.734 19.4567 89.8349 20.2749L87.9237 22.1477V22.2372H93.4208V24.5H84.0884Z" fill="white"/>
<path d="M66.6818 51V42.2727H67.7386V46.1591H72.392V42.2727H73.4489V51H72.392V47.0966H67.7386V51H66.6818ZM78.0874 51.1364C77.4964 51.1364 76.978 50.9957 76.532 50.7145C76.0888 50.4332 75.7422 50.0398 75.4922 49.5341C75.245 49.0284 75.1214 48.4375 75.1214 47.7614C75.1214 47.0795 75.245 46.4844 75.4922 45.9759C75.7422 45.4673 76.0888 45.0724 76.532 44.7912C76.978 44.5099 77.4964 44.3693 78.0874 44.3693C78.6783 44.3693 79.1953 44.5099 79.6385 44.7912C80.0845 45.0724 80.4311 45.4673 80.6783 45.9759C80.9283 46.4844 81.0533 47.0795 81.0533 47.7614C81.0533 48.4375 80.9283 49.0284 80.6783 49.5341C80.4311 50.0398 80.0845 50.4332 79.6385 50.7145C79.1953 50.9957 78.6783 51.1364 78.0874 51.1364ZM78.0874 50.233C78.5362 50.233 78.9055 50.1179 79.1953 49.8878C79.4851 49.6577 79.6996 49.3551 79.8388 48.9801C79.978 48.6051 80.0476 48.1989 80.0476 47.7614C80.0476 47.3239 79.978 46.9162 79.8388 46.5384C79.6996 46.1605 79.4851 45.8551 79.1953 45.6222C78.9055 45.3892 78.5362 45.2727 78.0874 45.2727C77.6385 45.2727 77.2692 45.3892 76.9794 45.6222C76.6896 45.8551 76.4751 46.1605 76.3359 46.5384C76.1967 46.9162 76.1271 47.3239 76.1271 47.7614C76.1271 48.1989 76.1967 48.6051 76.3359 48.9801C76.4751 49.3551 76.6896 49.6577 76.9794 49.8878C77.2692 50.1179 77.6385 50.233 78.0874 50.233ZM86.7134 48.3239V44.4545H87.7191V51H86.7134V49.892H86.6452C86.4918 50.2244 86.2532 50.5071 85.9293 50.7401C85.6055 50.9702 85.1964 51.0852 84.7021 51.0852C84.293 51.0852 83.9293 50.9957 83.6112 50.8168C83.293 50.6349 83.043 50.3622 82.8612 49.9986C82.6793 49.6321 82.5884 49.1705 82.5884 48.6136V44.4545H83.5941V48.5455C83.5941 49.0227 83.7276 49.4034 83.9947 49.6875C84.2646 49.9716 84.6083 50.1136 85.0259 50.1136C85.2759 50.1136 85.5302 50.0497 85.7887 49.9219C86.0501 49.794 86.2688 49.598 86.445 49.3338C86.6239 49.0696 86.7134 48.733 86.7134 48.3239ZM89.5611 51V44.4545H90.5327V45.4432H90.6009C90.7202 45.1193 90.9361 44.8565 91.2486 44.6548C91.5611 44.4531 91.9134 44.3523 92.3054 44.3523C92.3793 44.3523 92.4716 44.3537 92.5824 44.3565C92.6932 44.3594 92.777 44.3636 92.8338 44.3693V45.392C92.7997 45.3835 92.7216 45.3707 92.5994 45.3537C92.4801 45.3338 92.3537 45.3239 92.2202 45.3239C91.902 45.3239 91.6179 45.3906 91.3679 45.5241C91.1207 45.6548 90.9247 45.8366 90.7798 46.0696C90.6378 46.2997 90.5668 46.5625 90.5668 46.858V51H89.5611ZM98.6623 45.9205L97.7589 46.1761C97.7021 46.0256 97.6183 45.8793 97.5075 45.7372C97.3995 45.5923 97.2518 45.473 97.0643 45.3793C96.8768 45.2855 96.6367 45.2386 96.3441 45.2386C95.9435 45.2386 95.6097 45.331 95.3427 45.5156C95.0785 45.6974 94.9464 45.929 94.9464 46.2102C94.9464 46.4602 95.0373 46.6577 95.2191 46.8026C95.4009 46.9474 95.685 47.0682 96.0714 47.1648L97.043 47.4034C97.6282 47.5455 98.0643 47.7628 98.3512 48.0554C98.6381 48.3452 98.7816 48.7187 98.7816 49.1761C98.7816 49.5511 98.6737 49.8864 98.4577 50.1818C98.2447 50.4773 97.9464 50.7102 97.5629 50.8807C97.1793 51.0511 96.7333 51.1364 96.2248 51.1364C95.5572 51.1364 95.0046 50.9915 94.5671 50.7017C94.1296 50.4119 93.8526 49.9886 93.7362 49.4318L94.6907 49.1932C94.7816 49.5455 94.9535 49.8097 95.2063 49.9858C95.462 50.1619 95.7958 50.25 96.2077 50.25C96.6765 50.25 97.0487 50.1506 97.3242 49.9517C97.6026 49.75 97.7418 49.5085 97.7418 49.2273C97.7418 49 97.6623 48.8097 97.5032 48.6562C97.3441 48.5 97.0998 48.3835 96.7702 48.3068L95.6793 48.0511C95.0799 47.9091 94.6396 47.6889 94.3583 47.3906C94.0799 47.0895 93.9407 46.7131 93.9407 46.2614C93.9407 45.892 94.0444 45.5653 94.2518 45.2812C94.462 44.9972 94.7475 44.7741 95.1083 44.6122C95.4719 44.4503 95.8839 44.3693 96.3441 44.3693C96.9918 44.3693 97.5004 44.5114 97.8697 44.7955C98.2418 45.0795 98.506 45.4545 98.6623 45.9205Z" fill="white"/>
<circle cx="112.5" cy="15.5" r="1.5" fill="white"/>
<circle cx="112.5" cy="22.5" r="1.5" fill="white"/>
<path d="M131.664 22.1989V20.0192L137.129 11.4091H139.008V14.4261H137.896L134.451 19.8786V19.9808H142.217V22.1989H131.664ZM137.947 24.5V21.5341L137.998 20.5689V11.4091H140.593V24.5H137.947ZM143.863 22.1989V20.0192L149.328 11.4091H151.207V14.4261H150.095L146.65 19.8786V19.9808H154.416V22.1989H143.863ZM150.146 24.5V21.5341L150.197 20.5689V11.4091H152.793V24.5H150.146Z" fill="white"/>
<path d="M121.528 42.2727H122.789L125.755 49.517H125.857L128.823 42.2727H130.084V51H129.096V44.3693H129.01L126.283 51H125.329L122.601 44.3693H122.516V51H121.528V42.2727ZM132.067 51V44.4545H133.073V51H132.067ZM132.578 43.3636C132.382 43.3636 132.213 43.2969 132.071 43.1634C131.932 43.0298 131.862 42.8693 131.862 42.6818C131.862 42.4943 131.932 42.3338 132.071 42.2003C132.213 42.0668 132.382 42 132.578 42C132.774 42 132.942 42.0668 133.081 42.2003C133.223 42.3338 133.294 42.4943 133.294 42.6818C133.294 42.8693 133.223 43.0298 133.081 43.1634C132.942 43.2969 132.774 43.3636 132.578 43.3636ZM135.92 47.0625V51H134.915V44.4545H135.886V45.4773H135.971C136.125 45.1449 136.358 44.8778 136.67 44.6761C136.983 44.4716 137.386 44.3693 137.881 44.3693C138.324 44.3693 138.711 44.4602 139.044 44.642C139.376 44.821 139.635 45.0938 139.819 45.4602C140.004 45.8239 140.096 46.2841 140.096 46.8409V51H139.091V46.9091C139.091 46.3949 138.957 45.9943 138.69 45.7074C138.423 45.4176 138.057 45.2727 137.591 45.2727C137.27 45.2727 136.983 45.3423 136.73 45.4815C136.48 45.6207 136.282 45.8239 136.138 46.0909C135.993 46.358 135.92 46.6818 135.92 47.0625ZM146.059 48.3239V44.4545H147.065V51H146.059V49.892H145.991C145.838 50.2244 145.599 50.5071 145.275 50.7401C144.951 50.9702 144.542 51.0852 144.048 51.0852C143.639 51.0852 143.275 50.9957 142.957 50.8168C142.639 50.6349 142.389 50.3622 142.207 49.9986C142.025 49.6321 141.934 49.1705 141.934 48.6136V44.4545H142.94V48.5455C142.94 49.0227 143.073 49.4034 143.34 49.6875C143.61 49.9716 143.954 50.1136 144.372 50.1136C144.622 50.1136 144.876 50.0497 145.134 49.9219C145.396 49.794 145.615 49.598 145.791 49.3338C145.97 49.0696 146.059 48.733 146.059 48.3239ZM151.753 44.4545V45.3068H148.361V44.4545H151.753ZM149.35 42.8864H150.356V49.125C150.356 49.4091 150.397 49.6222 150.479 49.7642C150.564 49.9034 150.672 49.9972 150.803 50.0455C150.937 50.0909 151.077 50.1136 151.225 50.1136C151.336 50.1136 151.427 50.108 151.498 50.0966C151.569 50.0824 151.626 50.071 151.668 50.0625L151.873 50.9659C151.805 50.9915 151.709 51.017 151.587 51.0426C151.465 51.071 151.31 51.0852 151.123 51.0852C150.839 51.0852 150.56 51.0241 150.287 50.902C150.018 50.7798 149.793 50.5938 149.614 50.3438C149.438 50.0938 149.35 49.7784 149.35 49.3977V42.8864ZM155.94 51.1364C155.309 51.1364 154.765 50.9972 154.308 50.7188C153.854 50.4375 153.503 50.0455 153.256 49.5426C153.011 49.0369 152.889 48.4489 152.889 47.7784C152.889 47.108 153.011 46.517 153.256 46.0057C153.503 45.4915 153.846 45.0909 154.287 44.804C154.73 44.5142 155.247 44.3693 155.838 44.3693C156.179 44.3693 156.515 44.4261 156.848 44.5398C157.18 44.6534 157.483 44.8381 157.756 45.0938C158.028 45.3466 158.246 45.6818 158.407 46.0994C158.569 46.517 158.65 47.0312 158.65 47.642V48.0682H153.605V47.1989H157.628C157.628 46.8295 157.554 46.5 157.406 46.2102C157.261 45.9205 157.054 45.6918 156.784 45.5241C156.517 45.3565 156.202 45.2727 155.838 45.2727C155.437 45.2727 155.091 45.3722 154.798 45.571C154.508 45.767 154.285 46.0227 154.129 46.3381C153.973 46.6534 153.895 46.9915 153.895 47.3523V47.9318C153.895 48.4261 153.98 48.8452 154.15 49.1889C154.324 49.5298 154.564 49.7898 154.871 49.9688C155.177 50.1449 155.534 50.233 155.94 50.233C156.204 50.233 156.443 50.196 156.656 50.1222C156.872 50.0455 157.058 49.9318 157.214 49.7812C157.371 49.6278 157.491 49.4375 157.577 49.2102L158.548 49.483C158.446 49.8125 158.274 50.1023 158.032 50.3523C157.791 50.5994 157.493 50.7926 157.138 50.9318C156.782 51.0682 156.383 51.1364 155.94 51.1364ZM164.817 45.9205L163.913 46.1761C163.856 46.0256 163.773 45.8793 163.662 45.7372C163.554 45.5923 163.406 45.473 163.219 45.3793C163.031 45.2855 162.791 45.2386 162.498 45.2386C162.098 45.2386 161.764 45.331 161.497 45.5156C161.233 45.6974 161.101 45.929 161.101 46.2102C161.101 46.4602 161.192 46.6577 161.373 46.8026C161.555 46.9474 161.839 47.0682 162.226 47.1648L163.197 47.4034C163.782 47.5455 164.219 47.7628 164.506 48.0554C164.792 48.3452 164.936 48.7187 164.936 49.1761C164.936 49.5511 164.828 49.8864 164.612 50.1818C164.399 50.4773 164.101 50.7102 163.717 50.8807C163.334 51.0511 162.888 51.1364 162.379 51.1364C161.711 51.1364 161.159 50.9915 160.721 50.7017C160.284 50.4119 160.007 49.9886 159.89 49.4318L160.845 49.1932C160.936 49.5455 161.108 49.8097 161.361 49.9858C161.616 50.1619 161.95 50.25 162.362 50.25C162.831 50.25 163.203 50.1506 163.479 49.9517C163.757 49.75 163.896 49.5085 163.896 49.2273C163.896 49 163.817 48.8097 163.657 48.6562C163.498 48.5 163.254 48.3835 162.925 48.3068L161.834 48.0511C161.234 47.9091 160.794 47.6889 160.513 47.3906C160.234 47.0895 160.095 46.7131 160.095 46.2614C160.095 45.892 160.199 45.5653 160.406 45.2812C160.616 44.9972 160.902 44.7741 161.263 44.6122C161.626 44.4503 162.038 44.3693 162.498 44.3693C163.146 44.3693 163.655 44.5114 164.024 44.7955C164.396 45.0795 164.66 45.4545 164.817 45.9205Z" fill="white"/>
<circle cx="173.5" cy="15.5" r="1.5" fill="white"/>
<circle cx="173.5" cy="22.5" r="1.5" fill="white"/>
<path d="M202.552 11.4091V24.5H199.785V14.0362H199.708L196.71 15.9155V13.4609L199.951 11.4091H202.552ZM210.445 24.679C209.541 24.679 208.736 24.5128 208.029 24.1804C207.326 23.848 206.767 23.3899 206.354 22.8061C205.941 22.2223 205.725 21.5533 205.708 20.799H208.393C208.423 21.3061 208.636 21.7173 209.032 22.0327C209.429 22.348 209.899 22.5057 210.445 22.5057C210.88 22.5057 211.263 22.4098 211.595 22.218C211.932 22.022 212.194 21.7514 212.382 21.4062C212.573 21.0568 212.669 20.6562 212.669 20.2045C212.669 19.7443 212.571 19.3395 212.375 18.9901C212.184 18.6406 211.917 18.3679 211.576 18.1719C211.235 17.9759 210.845 17.8757 210.407 17.8714C210.023 17.8714 209.65 17.9503 209.288 18.108C208.93 18.2656 208.651 18.4808 208.451 18.7536L205.99 18.3125L206.61 11.4091H214.612V13.6719H208.892L208.553 16.951H208.63C208.86 16.6271 209.207 16.3587 209.671 16.1456C210.136 15.9325 210.656 15.826 211.231 15.826C212.019 15.826 212.723 16.0114 213.34 16.3821C213.958 16.7528 214.446 17.2621 214.804 17.9098C215.162 18.5533 215.339 19.2947 215.335 20.1342C215.339 21.0163 215.134 21.8004 214.721 22.4865C214.312 23.1683 213.739 23.7053 213.002 24.0973C212.269 24.4851 211.416 24.679 210.445 24.679Z" fill="white"/>
<path d="M187.208 44.4545C187.157 44.0227 186.95 43.6875 186.586 43.4489C186.223 43.2102 185.777 43.0909 185.248 43.0909C184.862 43.0909 184.524 43.1534 184.234 43.2784C183.947 43.4034 183.723 43.5753 183.561 43.794C183.402 44.0128 183.322 44.2614 183.322 44.5398C183.322 44.7727 183.377 44.973 183.488 45.1406C183.602 45.3054 183.747 45.4432 183.923 45.554C184.099 45.6619 184.284 45.7514 184.477 45.8224C184.67 45.8906 184.848 45.946 185.01 45.9886L185.896 46.2273C186.123 46.2869 186.376 46.3693 186.654 46.4744C186.936 46.5795 187.204 46.723 187.46 46.9048C187.718 47.0838 187.931 47.3139 188.099 47.5952C188.267 47.8764 188.35 48.2216 188.35 48.6307C188.35 49.1023 188.227 49.5284 187.98 49.9091C187.735 50.2898 187.377 50.5923 186.906 50.8168C186.437 51.0412 185.868 51.1534 185.197 51.1534C184.572 51.1534 184.031 51.0526 183.574 50.8509C183.119 50.6491 182.761 50.3679 182.5 50.0071C182.241 49.6463 182.095 49.2273 182.061 48.75H183.152C183.18 49.0795 183.291 49.3523 183.484 49.5682C183.68 49.7812 183.927 49.9403 184.225 50.0455C184.527 50.1477 184.85 50.1989 185.197 50.1989C185.6 50.1989 185.963 50.1335 186.284 50.0028C186.605 49.8693 186.859 49.6847 187.047 49.4489C187.234 49.2102 187.328 48.9318 187.328 48.6136C187.328 48.3239 187.247 48.0881 187.085 47.9062C186.923 47.7244 186.71 47.5767 186.446 47.4631C186.181 47.3494 185.896 47.25 185.589 47.1648L184.515 46.858C183.833 46.6619 183.294 46.3821 182.896 46.0185C182.498 45.6548 182.299 45.179 182.299 44.5909C182.299 44.1023 182.431 43.6761 182.696 43.3125C182.963 42.946 183.321 42.6619 183.77 42.4602C184.221 42.2557 184.725 42.1534 185.282 42.1534C185.845 42.1534 186.345 42.2543 186.782 42.456C187.22 42.6548 187.566 42.9276 187.822 43.2741C188.081 43.6207 188.217 44.0142 188.231 44.4545H187.208ZM192.696 51.1364C192.065 51.1364 191.521 50.9972 191.064 50.7188C190.609 50.4375 190.259 50.0455 190.011 49.5426C189.767 49.0369 189.645 48.4489 189.645 47.7784C189.645 47.108 189.767 46.517 190.011 46.0057C190.259 45.4915 190.602 45.0909 191.043 44.804C191.486 44.5142 192.003 44.3693 192.594 44.3693C192.935 44.3693 193.271 44.4261 193.604 44.5398C193.936 44.6534 194.239 44.8381 194.511 45.0938C194.784 45.3466 195.001 45.6818 195.163 46.0994C195.325 46.517 195.406 47.0312 195.406 47.642V48.0682H190.361V47.1989H194.384C194.384 46.8295 194.31 46.5 194.162 46.2102C194.017 45.9205 193.81 45.6918 193.54 45.5241C193.273 45.3565 192.957 45.2727 192.594 45.2727C192.193 45.2727 191.847 45.3722 191.554 45.571C191.264 45.767 191.041 46.0227 190.885 46.3381C190.729 46.6534 190.651 46.9915 190.651 47.3523V47.9318C190.651 48.4261 190.736 48.8452 190.906 49.1889C191.08 49.5298 191.32 49.7898 191.626 49.9688C191.933 50.1449 192.29 50.233 192.696 50.233C192.96 50.233 193.199 50.196 193.412 50.1222C193.628 50.0455 193.814 49.9318 193.97 49.7812C194.126 49.6278 194.247 49.4375 194.332 49.2102L195.304 49.483C195.202 49.8125 195.03 50.1023 194.788 50.3523C194.547 50.5994 194.249 50.7926 193.893 50.9318C193.538 51.0682 193.139 51.1364 192.696 51.1364ZM199.595 51.1364C198.982 51.1364 198.453 50.9915 198.01 50.7017C197.567 50.4119 197.226 50.0128 196.987 49.5043C196.749 48.9957 196.629 48.4148 196.629 47.7614C196.629 47.0966 196.751 46.5099 196.996 46.0014C197.243 45.4901 197.587 45.0909 198.027 44.804C198.47 44.5142 198.987 44.3693 199.578 44.3693C200.038 44.3693 200.453 44.4545 200.822 44.625C201.192 44.7955 201.494 45.0341 201.73 45.3409C201.966 45.6477 202.112 46.0057 202.169 46.4148H201.163C201.087 46.1165 200.916 45.8523 200.652 45.6222C200.391 45.3892 200.038 45.2727 199.595 45.2727C199.203 45.2727 198.859 45.375 198.564 45.5795C198.271 45.7812 198.043 46.0668 197.878 46.4361C197.716 46.8026 197.635 47.233 197.635 47.7273C197.635 48.233 197.714 48.6733 197.874 49.0483C198.036 49.4233 198.263 49.7145 198.555 49.9219C198.851 50.1293 199.197 50.233 199.595 50.233C199.857 50.233 200.094 50.1875 200.307 50.0966C200.52 50.0057 200.7 49.875 200.848 49.7045C200.996 49.5341 201.101 49.3295 201.163 49.0909H202.169C202.112 49.4773 201.972 49.8253 201.747 50.1349C201.526 50.4418 201.232 50.6861 200.865 50.8679C200.501 51.0469 200.078 51.1364 199.595 51.1364ZM206.298 51.1364C205.707 51.1364 205.189 50.9957 204.743 50.7145C204.3 50.4332 203.953 50.0398 203.703 49.5341C203.456 49.0284 203.332 48.4375 203.332 47.7614C203.332 47.0795 203.456 46.4844 203.703 45.9759C203.953 45.4673 204.3 45.0724 204.743 44.7912C205.189 44.5099 205.707 44.3693 206.298 44.3693C206.889 44.3693 207.406 44.5099 207.849 44.7912C208.295 45.0724 208.642 45.4673 208.889 45.9759C209.139 46.4844 209.264 47.0795 209.264 47.7614C209.264 48.4375 209.139 49.0284 208.889 49.5341C208.642 50.0398 208.295 50.4332 207.849 50.7145C207.406 50.9957 206.889 51.1364 206.298 51.1364ZM206.298 50.233C206.747 50.233 207.116 50.1179 207.406 49.8878C207.696 49.6577 207.911 49.3551 208.05 48.9801C208.189 48.6051 208.259 48.1989 208.259 47.7614C208.259 47.3239 208.189 46.9162 208.05 46.5384C207.911 46.1605 207.696 45.8551 207.406 45.6222C207.116 45.3892 206.747 45.2727 206.298 45.2727C205.849 45.2727 205.48 45.3892 205.19 45.6222C204.901 45.8551 204.686 46.1605 204.547 46.5384C204.408 46.9162 204.338 47.3239 204.338 47.7614C204.338 48.1989 204.408 48.6051 204.547 48.9801C204.686 49.3551 204.901 49.6577 205.19 49.8878C205.48 50.1179 205.849 50.233 206.298 50.233ZM211.805 47.0625V51H210.799V44.4545H211.771V45.4773H211.856C212.01 45.1449 212.243 44.8778 212.555 44.6761C212.868 44.4716 213.271 44.3693 213.765 44.3693C214.208 44.3693 214.596 44.4602 214.929 44.642C215.261 44.821 215.52 45.0938 215.704 45.4602C215.889 45.8239 215.981 46.2841 215.981 46.8409V51H214.975V46.9091C214.975 46.3949 214.842 45.9943 214.575 45.7074C214.308 45.4176 213.941 45.2727 213.475 45.2727C213.154 45.2727 212.868 45.3423 212.615 45.4815C212.365 45.6207 212.167 45.8239 212.022 46.0909C211.877 46.358 211.805 46.6818 211.805 47.0625ZM220.29 51.1364C219.745 51.1364 219.263 50.9986 218.846 50.723C218.428 50.4446 218.102 50.0526 217.866 49.5469C217.63 49.0384 217.512 48.4375 217.512 47.7443C217.512 47.0568 217.63 46.4602 217.866 45.9545C218.102 45.4489 218.43 45.0582 218.85 44.7827C219.271 44.5071 219.756 44.3693 220.308 44.3693C220.734 44.3693 221.07 44.4403 221.317 44.5824C221.567 44.7216 221.758 44.8807 221.888 45.0597C222.022 45.2358 222.126 45.3807 222.2 45.4943H222.285V42.2727H223.29V51H222.319V49.9943H222.2C222.126 50.1136 222.021 50.2642 221.884 50.446C221.748 50.625 221.553 50.7855 221.3 50.9276C221.048 51.0668 220.711 51.1364 220.29 51.1364ZM220.427 50.233C220.83 50.233 221.171 50.1278 221.45 49.9176C221.728 49.7045 221.94 49.4105 222.085 49.0355C222.229 48.6577 222.302 48.2216 222.302 47.7273C222.302 47.2386 222.231 46.8111 222.089 46.4446C221.947 46.0753 221.737 45.7884 221.458 45.5838C221.18 45.3764 220.836 45.2727 220.427 45.2727C220.001 45.2727 219.646 45.3821 219.362 45.6009C219.08 45.8168 218.869 46.1108 218.727 46.483C218.587 46.8523 218.518 47.267 218.518 47.7273C218.518 48.1932 218.589 48.6165 218.731 48.9972C218.876 49.375 219.089 49.6761 219.37 49.9006C219.654 50.1222 220.006 50.233 220.427 50.233ZM229.908 45.9205L229.005 46.1761C228.948 46.0256 228.864 45.8793 228.754 45.7372C228.646 45.5923 228.498 45.473 228.31 45.3793C228.123 45.2855 227.883 45.2386 227.59 45.2386C227.19 45.2386 226.856 45.331 226.589 45.5156C226.325 45.6974 226.192 45.929 226.192 46.2102C226.192 46.4602 226.283 46.6577 226.465 46.8026C226.647 46.9474 226.931 47.0682 227.317 47.1648L228.289 47.4034C228.874 47.5455 229.31 47.7628 229.597 48.0554C229.884 48.3452 230.028 48.7187 230.028 49.1761C230.028 49.5511 229.92 49.8864 229.704 50.1818C229.491 50.4773 229.192 50.7102 228.809 50.8807C228.425 51.0511 227.979 51.1364 227.471 51.1364C226.803 51.1364 226.251 50.9915 225.813 50.7017C225.376 50.4119 225.099 49.9886 224.982 49.4318L225.937 49.1932C226.028 49.5455 226.2 49.8097 226.452 49.9858C226.708 50.1619 227.042 50.25 227.454 50.25C227.923 50.25 228.295 50.1506 228.57 49.9517C228.849 49.75 228.988 49.5085 228.988 49.2273C228.988 49 228.908 48.8097 228.749 48.6562C228.59 48.5 228.346 48.3835 228.016 48.3068L226.925 48.0511C226.326 47.9091 225.886 47.6889 225.604 47.3906C225.326 47.0895 225.187 46.7131 225.187 46.2614C225.187 45.892 225.29 45.5653 225.498 45.2812C225.708 44.9972 225.994 44.7741 226.354 44.6122C226.718 44.4503 227.13 44.3693 227.59 44.3693C228.238 44.3693 228.746 44.5114 229.116 44.7955C229.488 45.0795 229.752 45.4545 229.908 45.9205Z" fill="white"/>
</svg>
